HIERARCHY
ROOT Root
{
  OFFSET 0.0 0.0 0.0
  CHANNELS 6 Xposition Yposition Zposition Zrotation Yrotation Xrotation
  JOINT Hips
  {
    OFFSET 0.0 100.0 0.0
    CHANNELS 6 Xposition Yposition Zposition Zrotation Yrotation Xrotation
    JOINT Spine1
    {
      OFFSET 5.003913 -0.037094 -0.013727
      CHANNELS 3 Zrotation Yrotation Xrotation
      JOINT Spine2
      {
        OFFSET 7.125363 -1e-06 0.0
        CHANNELS 3 Zrotation Yrotation Xrotation
        JOINT Chest
        {
          OFFSET 7.594027 1e-06 0.0
          CHANNELS 3 Zrotation Yrotation Xrotation
          JOINT Neck1
          {
            OFFSET 26.313086 -0.460272 -0.181672
            CHANNELS 3 Zrotation Yrotation Xrotation
            JOINT Neck2
            {
              OFFSET 8.045911 0.0 0.0
              CHANNELS 3 Zrotation Yrotation Xrotation
              JOINT Head
              {
                OFFSET 6.432774 0.0 0.0
                CHANNELS 3 Zrotation Yrotation Xrotation
                JOINT HeadEnd
                {
                  OFFSET 16.169773 0.06451 0.00362
                  CHANNELS 3 Zrotation Yrotation Xrotation
                }
                JOINT Jaw
                {
                  OFFSET 0.108741 3.12938 0.002639
                  CHANNELS 3 Zrotation Yrotation Xrotation
                }
                JOINT LeftEye
                {
                  OFFSET 4.45173 8.166359 3.206392
                  CHANNELS 3 Zrotation Yrotation Xrotation
                }
                JOINT RightEye
                {
                  OFFSET 4.436895 8.135758 -3.222429
                  CHANNELS 3 Zrotation Yrotation Xrotation
                }
              }
            }
          }
          JOINT LeftShoulder
          {
            OFFSET 23.218927 5.195579 1.621656
            CHANNELS 3 Zrotation Yrotation Xrotation
            JOINT LeftArm
            {
              OFFSET 15.902118 2e-06 -2e-06
              CHANNELS 3 Zrotation Yrotation Xrotation
              JOINT LeftForeArm
              {
                OFFSET 28.739307 0.0 -1e-06
                CHANNELS 3 Zrotation Yrotation Xrotation
                JOINT LeftHand
                {
                  OFFSET 27.093981 -4e-06 0.0
                  CHANNELS 3 Zrotation Yrotation Xrotation
                  JOINT LeftHandThumb1
                  {
                    OFFSET 2.276781 3.380274 0.83384
                    CHANNELS 3 Zrotation Yrotation Xrotation
                    JOINT LeftHandThumb2
                    {
                      OFFSET 4.705309 -1e-06 -1e-06
                      CHANNELS 3 Zrotation Yrotation Xrotation
                      JOINT LeftHandThumb3
                      {
                        OFFSET 2.798515 0.0 3e-06
                        CHANNELS 3 Zrotation Yrotation Xrotation
                        JOINT LeftHandThumbEnd
                        {
                          OFFSET 3.180793 4e-06 -4e-06
                          CHANNELS 3 Zrotation Yrotation Xrotation
                        }
                      }
                    }
                  }
                  JOINT LeftHandIndex1
                  {
                    OFFSET 3.247786 2.352677 0.137192
                    CHANNELS 3 Zrotation Yrotation Xrotation
                    JOINT LeftHandIndex2
                    {
                      OFFSET 6.367095 1e-06 0.0
                      CHANNELS 3 Zrotation Yrotation Xrotation
                      JOINT LeftHandIndex3
                      {
                        OFFSET 3.662364 0.0 0.0
                        CHANNELS 3 Zrotation Yrotation Xrotation
                        JOINT LeftHandIndex4
                        {
                          OFFSET 2.329242 4e-06 -4e-06
                          CHANNELS 3 Zrotation Yrotation Xrotation
                          JOINT LeftHandIndexEnd
                          {
                            OFFSET 2.767823 1e-06 0.0
                            CHANNELS 3 Zrotation Yrotation Xrotation
                          }
                        }
                      }
                    }
                  }
                  JOINT LeftHandMiddle1
                  {
                    OFFSET 3.163612 0.945023 -0.406112
                    CHANNELS 3 Zrotation Yrotation Xrotation
                    JOINT LeftHandMiddle2
                    {
                      OFFSET 6.276789 3e-06 0.0
                      CHANNELS 3 Zrotation Yrotation Xrotation
                      JOINT LeftHandMiddle3
                      {
                        OFFSET 4.35652 -1e-06 4e-06
                        CHANNELS 3 Zrotation Yrotation Xrotation
                        JOINT LeftHandMiddle4
                        {
                          OFFSET 2.996877 0.0 8e-06
                          CHANNELS 3 Zrotation Yrotation Xrotation
                          JOINT LeftHandMiddleEnd
                          {
                            OFFSET 2.323256 3e-06 -4e-06
                            CHANNELS 3 Zrotation Yrotation Xrotation
                          }
                        }
                      }
                    }
                  }
                  JOINT LeftHandRing1
                  {
                    OFFSET 2.882606 -0.309162 0.107445
                    CHANNELS 3 Zrotation Yrotation Xrotation
                    JOINT LeftHandRing2
                    {
                      OFFSET 6.033198 0.0 4e-06
                      CHANNELS 3 Zrotation Yrotation Xrotation
                      JOINT LeftHandRing3
                      {
                        OFFSET 4.350578 3e-06 0.0
                        CHANNELS 3 Zrotation Yrotation Xrotation
                        JOINT LeftHandRing4
                        {
                          OFFSET 2.651321 2e-06 -7e-06
                          CHANNELS 3 Zrotation Yrotation Xrotation
                          JOINT LeftHandRingEnd
                          {
                            OFFSET 1.937663 1e-06 -4e-06
                            CHANNELS 3 Zrotation Yrotation Xrotation
                          }
                        }
                      }
                    }
                  }
                  JOINT LeftHandPinky1
                  {
                    OFFSET 2.865315 -1.525436 0.575687
                    CHANNELS 3 Zrotation Yrotation Xrotation
                    JOINT LeftHandPinky2
                    {
                      OFFSET 5.54936 1e-06 -8e-06
                      CHANNELS 3 Zrotation Yrotation Xrotation
                      JOINT LeftHandPinky3
                      {
                        OFFSET 3.070974 0.0 -4e-06
                        CHANNELS 3 Zrotation Yrotation Xrotation
                        JOINT LeftHandPinky4
                        {
                          OFFSET 1.549672 1e-06 0.0
                          CHANNELS 3 Zrotation Yrotation Xrotation
                          JOINT LeftHandPinkyEnd
                          {
                            OFFSET 1.952123 0.0 0.0
                            CHANNELS 3 Zrotation Yrotation Xrotation
                          }
                        }
                      }
                    }
                  }
                }
              }
            }
          }
          JOINT RightShoulder
          {
            OFFSET 23.161716 5.296122 -1.380114
            CHANNELS 3 Zrotation Yrotation Xrotation
            JOINT RightArm
            {
              OFFSET -16.027195 -2e-06 1.1e-05
              CHANNELS 3 Zrotation Yrotation Xrotation
              JOINT RightForeArm
              {
                OFFSET -28.736639 4e-06 2e-06
                CHANNELS 3 Zrotation Yrotation Xrotation
                JOINT RightHand
                {
                  OFFSET -27.133619 6e-06 0.0
                  CHANNELS 3 Zrotation Yrotation Xrotation
                  JOINT RightHandThumb1
                  {
                    OFFSET -2.274328 -3.351035 -0.83067
                    CHANNELS 3 Zrotation Yrotation Xrotation
                    JOINT RightHandThumb2
                    {
                      OFFSET -4.703594 -3e-06 2e-06
                      CHANNELS 3 Zrotation Yrotation Xrotation
                      JOINT RightHandThumb3
                      {
                        OFFSET -2.794935 -4e-06 -3e-06
                        CHANNELS 3 Zrotation Yrotation Xrotation
                        JOINT RightHandThumbEnd
                        {
                          OFFSET -3.183852 4e-06 1e-06
                          CHANNELS 3 Zrotation Yrotation Xrotation
                        }
                      }
                    }
                  }
                  JOINT RightHandIndex1
                  {
                    OFFSET -3.253496 -2.33755 -0.127667
                    CHANNELS 3 Zrotation Yrotation Xrotation
                    JOINT RightHandIndex2
                    {
                      OFFSET -6.344434 0.0 0.0
                      CHANNELS 3 Zrotation Yrotation Xrotation
                      JOINT RightHandIndex3
                      {
                        OFFSET -3.654871 0.0 -8e-06
                        CHANNELS 3 Zrotation Yrotation Xrotation
                        JOINT RightHandIndex4
                        {
                          OFFSET -2.327586 -1e-06 0.0
                          CHANNELS 3 Zrotation Yrotation Xrotation
                          JOINT RightHandIndexEnd
                          {
                            OFFSET -2.770001 3e-06 8e-06
                            CHANNELS 3 Zrotation Yrotation Xrotation
                          }
                        }
                      }
                    }
                  }
                  JOINT RightHandMiddle1
                  {
                    OFFSET -3.168223 -0.944764 0.411762
                    CHANNELS 3 Zrotation Yrotation Xrotation
                    JOINT RightHandMiddle2
                    {
                      OFFSET -6.266691 -1e-06 -4e-06
                      CHANNELS 3 Zrotation Yrotation Xrotation
                      JOINT RightHandMiddle3
                      {
                        OFFSET -4.348901 0.0 0.0
                        CHANNELS 3 Zrotation Yrotation Xrotation
                        JOINT RightHandMiddle4
                        {
                          OFFSET -3.00024 2e-06 -4e-06
                          CHANNELS 3 Zrotation Yrotation Xrotation
                          JOINT RightHandMiddleEnd
                          {
                            OFFSET -2.321477 -4e-06 -4e-06
                            CHANNELS 3 Zrotation Yrotation Xrotation
                          }
                        }
                      }
                    }
                  }
                  JOINT RightHandRing1
                  {
                    OFFSET -2.885654 0.293261 -0.119232
                    CHANNELS 3 Zrotation Yrotation Xrotation
                    JOINT RightHandRing2
                    {
                      OFFSET -6.032835 -1e-06 -4e-06
                      CHANNELS 3 Zrotation Yrotation Xrotation
                      JOINT RightHandRing3
                      {
                        OFFSET -4.33881 0.0 -4e-06
                        CHANNELS 3 Zrotation Yrotation Xrotation
                        JOINT RightHandRing4
                        {
                          OFFSET -2.654903 -4e-06 -4e-06
                          CHANNELS 3 Zrotation Yrotation Xrotation
                          JOINT RightHandRingEnd
                          {
                            OFFSET -1.935122 0.0 4e-06
                            CHANNELS 3 Zrotation Yrotation Xrotation
                          }
                        }
                      }
                    }
                  }
                  JOINT RightHandPinky1
                  {
                    OFFSET -2.866241 1.503904 -0.60527
                    CHANNELS 3 Zrotation Yrotation Xrotation
                    JOINT RightHandPinky2
                    {
                      OFFSET -5.553177 -2e-06 0.0
                      CHANNELS 3 Zrotation Yrotation Xrotation
                      JOINT RightHandPinky3
                      {
                        OFFSET -3.062664 -1e-06 -4e-06
                        CHANNELS 3 Zrotation Yrotation Xrotation
                        JOINT RightHandPinky4
                        {
                          OFFSET -1.546529 2e-06 4e-06
                          CHANNELS 3 Zrotation Yrotation Xrotation
                          JOINT RightHandPinkyEnd
                          {
                            OFFSET -1.952341 0.0 -4e-06
                            CHANNELS 3 Zrotation Yrotation Xrotation
                          }
                        }
                      }
                    }
                  }
                }
              }
            }
          }
        }
      }
    }
    JOINT LeftLeg
    {
      OFFSET -8.443107 2.567604 10.043214
      CHANNELS 3 Zrotation Yrotation Xrotation
      JOINT LeftShin
      {
        OFFSET 43.229198 1e-06 -1e-06
        CHANNELS 3 Zrotation Yrotation Xrotation
        JOINT LeftFoot
        {
          OFFSET 42.298611 1e-06 1e-06
          CHANNELS 3 Zrotation Yrotation Xrotation
          JOINT LeftToeBase
          {
            OFFSET 14.165858 1e-06 0.0
            CHANNELS 3 Zrotation Yrotation Xrotation
            JOINT LeftToeEnd
            {
              OFFSET 6.7141 -0.234461 0.0
              CHANNELS 3 Zrotation Yrotation Xrotation
            }
          }
        }
      }
    }
    JOINT RightLeg
    {
      OFFSET -8.303923 2.592729 -10.047278
      CHANNELS 3 Zrotation Yrotation Xrotation
      JOINT RightShin
      {
        OFFSET -43.369682 0.0 1e-06
        CHANNELS 3 Zrotation Yrotation Xrotation
        JOINT RightFoot
        {
          OFFSET -42.260784 4e-06 2e-06
          CHANNELS 3 Zrotation Yrotation Xrotation
          JOINT RightToeBase
          {
            OFFSET -14.222245 -2e-06 -1e-06
            CHANNELS 3 Zrotation Yrotation Xrotation
            JOINT RightToeEnd
            {
              OFFSET -6.660062 0.232574 -2e-06
              CHANNELS 3 Zrotation Yrotation Xrotation
            }
          }
        }
      }
    }
  }
}
MOTION
Frames: 4
Frame Time: 0.03333333333333333
0.0 0.0 0.0 0.0 -0.0 0.0 -7.350226 49.354683 161.540222 89.778183 -49.780624 89.303574 13.709073 -1.916156 1.10921 -4.397952 -0.44924 2.614987 26.750118 -5.205998 0.09576 25.203506 -4.28746 2.092898 -2.684723 -0.433572 -2.462629 -25.840305 -5.452034 -2.967182 7e-06 1e-06 -0.0 -0.200017 -0.074619 0.012845 0.091457 -0.098874 0.092734 0.121302 -0.053616 -0.065047 -27.967369 -76.564095 35.893234 87.199722 -5.647325 -28.567802 13.132043 -1.519529 -0.06728 82.283234 68.421646 83.677444 17.636633 -26.322733 52.411194 -19.466665 -14.395598 29.410395 -0.0 -8.774822 -2e-06 15.481734 -18.441545 6.335661 -0.609777 -1.795654 -3.889328 -4.807089 -11.046814 -2.93785 3e-06 -20.976023 0.0 -5.019972 -25.033564 -4.031882 6e-06 -1e-06 1e-06 -10.634535 -5.686972 -3.565588 10.573275 -17.92296 -3.113901 2e-06 -13.821214 0.0 -0.501777 -31.181511 -4.027017 -11.122967 -59.361359 7.544697 -13.982716 -7.1502 -2.875043 13.772731 -8.401497 -3.218241 0.347732 -34.211559 0.771655 -0.963028 -17.733376 2.621019 0.0 -0.0 -1e-06 -17.346424 -20.095224 -4.20178 21.757566 -1.638376 3.86643 1e-06 -6.338827 0.0 -1.697591 -22.591755 -6.194007 -0.0 -6e-06 -3e-06 -173.981552 -59.722839 -1.43763 66.536095 1.690184 -52.969734 14.591722 -1.237162 -0.260771 36.117821 52.80624 39.34132 22.182116 -20.375891 49.933308 -16.701813 -16.743528 28.476528 -2e-06 -12.690599 -1e-06 15.874973 -17.250933 2.629984 -0.10592 -1.513856 -4.275881 -5.039041 -5.612872 -2.953556 4e-06 -11.020528 -2e-06 -6.111298 -15.895336 -3.84047 -0.0 -1e-06 -0.0 -10.283369 -5.680289 -4.341838 11.028295 -11.302407 -2.372633 -1.384269 -14.238583 -6.32012 -0.625441 -26.924194 -3.8276 -3.76404 -50.142323 -4.118701 -13.708523 -7.363476 -3.720938 18.141146 -14.05274 -3.242674 6e-06 -18.787271 -3e-06 -0.429712 -8.456043 2.555502 -0.0 -0.0 -0.0 -15.923532 -20.094486 -5.473584 30.41921 -7.190826 1.735926 2e-06 -8.162924 -1e-06 -1.861902 -22.861475 -6.167945 -1e-06 -2e-06 -1e-06 102.140511 -6.383332 10.849756 129.764801 0.81977 0.506178 -49.88937 13.537718 2.994243 -9.351558 1.476369 2.193606 -0.999999 0.0 -0.0 -35.136082 3.41512 6.038417 88.112717 0.346784 -0.437135 -46.594875 18.045424 -1.857291 -10.330557 0.480995 1.434612 -1.000002 -0.0 -0.0 
0.0 0.0 0.0 0.0 -0.0 0.0 -6.920358 48.875725 163.80928 90.068573 -49.693623 87.319611 13.479555 -2.078269 1.177312 -4.563497 -0.423318 2.876918 26.610756 -5.465442 0.479753 25.435408 -4.920559 1.881465 -2.669253 -0.353993 -2.139498 -26.297148 -5.609127 -2.344458 6e-06 -0.0 -0.0 -0.201197 -0.111013 0.020665 0.093387 -0.155015 0.11555 0.14191 -0.073081 -0.072951 -31.140745 -77.364899 39.509079 86.576157 -7.95353 -28.262371 13.760249 -1.519773 -0.10349 85.419151 68.304962 87.287987 17.636623 -26.322721 52.411186 -19.466652 -14.395594 29.410378 -2e-06 -8.774817 -2e-06 15.535271 -18.33367 6.299449 -0.609777 -1.795654 -3.889327 -4.807086 -11.046805 -2.937851 5e-06 -20.976006 -2e-06 -5.019965 -25.033543 -4.031881 7e-06 1e-06 1e-06 -10.634531 -5.686967 -3.565588 10.573272 -17.922945 -3.1139 4e-06 -13.821201 1e-06 -0.501774 -31.181484 -4.027015 -10.994702 -59.349018 7.294499 -13.982709 -7.150195 -2.875042 13.772726 -8.40149 -3.21824 0.347734 -34.211536 0.771654 -0.963028 -17.733364 2.621019 0.0 0.0 0.0 -17.346413 -20.095209 -4.201784 21.757551 -1.638376 3.866428 2e-06 -6.338821 1e-06 -1.697587 -22.591728 -6.194004 -1e-06 -8e-06 -2e-06 -174.564743 -58.975399 -1.061326 68.938179 0.859104 -52.534008 14.099005 -0.891842 -0.216979 36.18969 53.933865 39.254375 22.182106 -20.375898 49.933327 -16.701811 -16.743528 28.476536 -3e-06 -12.690598 1e-06 15.974031 -17.37838 2.683066 -0.105918 -1.513856 -4.275881 -5.03904 -5.612869 -2.953557 5e-06 -11.020526 -2e-06 -6.111296 -15.895328 -3.840471 -0.0 -2e-06 0.0 -10.283369 -5.680285 -4.341839 11.028293 -11.302405 -2.372633 -1.384267 -14.238577 -6.320121 -0.625436 -26.924183 -3.827601 -3.87719 -50.452072 -3.947774 -13.708523 -7.363473 -3.72094 18.14115 -14.052739 -3.242675 6e-06 -18.78727 -0.0 -0.429713 -8.456043 2.555505 -0.0 0.0 -1e-06 -15.923532 -20.094482 -5.473584 30.41921 -7.190826 1.735923 2e-06 -8.162925 0.0 -1.861902 -22.861469 -6.167942 -1e-06 -2e-06 -1e-06 101.464851 -6.418572 10.529606 130.270447 1.005363 0.611952 -49.452003 14.471431 3.459686 -9.73808 1.467089 2.115252 -0.999999 0.0 0.0 -32.330128 3.245797 6.952356 84.793655 -0.025133 -0.463481 -44.834717 17.972515 -1.721277 -9.925457 0.496269 1.434433 -1.000004 -0.0 0.0 
0.0 0.0 0.0 0.0 -0.0 0.0 -6.495335 48.274185 166.172424 90.341728 -49.84444 86.085442 13.27418 -2.066198 1.07664 -4.757277 -0.581681 3.041844 26.225525 -5.37535 0.523377 25.497627 -5.328195 1.727691 -2.677293 -0.326662 -1.862306 -26.610708 -5.702922 -1.809869 6e-06 -0.0 0.0 -0.226017 -0.166633 0.027759 0.042308 -0.226476 0.127361 0.085039 -0.113393 -0.07211 -33.256634 -78.202965 41.845737 85.645348 -10.833195 -28.253904 14.331525 -1.357406 -0.150965 87.993912 68.01638 89.980026 17.636623 -26.322737 52.411194 -19.46666 -14.3956 29.410389 -2e-06 -8.774822 -1e-06 15.715033 -18.288803 6.287086 -0.609776 -1.795652 -3.889326 -4.807087 -11.046811 -2.93785 4e-06 -20.976015 1e-06 -5.019971 -25.03356 -4.031879 6e-06 1e-06 -1e-06 -10.634533 -5.686969 -3.565587 10.573275 -17.922953 -3.1139 3e-06 -13.821208 2e-06 -0.501779 -31.181505 -4.027013 -11.055299 -59.537727 7.420568 -13.982712 -7.150197 -2.875042 13.77273 -8.401493 -3.218242 0.347733 -34.211544 0.771657 -0.963029 -17.73337 2.62102 -0.0 0.0 -0.0 -17.346416 -20.095217 -4.20178 21.757557 -1.638376 3.866427 1e-06 -6.338824 1e-06 -1.697589 -22.591745 -6.194005 -0.0 -6e-06 -2e-06 -175.94548 -58.410152 -0.183623 72.10041 -0.467853 -52.024467 13.702047 -0.549947 -0.156059 37.546211 55.688393 40.555981 22.182114 -20.375891 49.933319 -16.701815 -16.743528 28.47653 -3e-06 -12.690601 -1e-06 16.096531 -17.47023 2.717487 -0.105919 -1.513856 -4.275881 -5.039041 -5.61287 -2.953557 4e-06 -11.020525 -2e-06 -6.111298 -15.895328 -3.840472 0.0 -0.0 -0.0 -10.28337 -5.680288 -4.341838 11.028294 -11.302404 -2.372633 -1.384268 -14.238577 -6.320123 -0.625436 -26.924187 -3.827602 -4.037258 -50.549091 -3.980694 -13.708524 -7.363476 -3.720939 18.141148 -14.052735 -3.242674 6e-06 -18.78727 -2e-06 -0.429712 -8.456043 2.555503 -0.0 -1e-06 1e-06 -15.923536 -20.094481 -5.473585 30.41921 -7.190827 1.735926 3e-06 -8.162921 0.0 -1.861903 -22.861467 -6.16794 -0.0 -3e-06 -1e-06 101.861473 -6.151503 10.057733 130.330826 1.146492 0.68927 -50.177738 14.750427 3.075747 -9.406583 1.407057 2.141738 -0.999997 0.0 -0.0 -29.636526 2.615206 7.404531 80.927284 -0.288246 -0.439531 -41.255478 18.178923 -1.010662 -10.60463 0.561161 1.41047 -1.000004 -0.0 1e-06 
0.0 0.0 0.0 0.0 -0.0 0.0 -6.209824 48.089092 168.587006 91.294403 -50.490799 85.029137 12.807594 -2.136627 1.14727 -4.997983 -0.525315 2.839624 25.792986 -5.548059 0.305653 25.366808 -4.957871 1.503214 -2.705173 -0.237725 -1.76041 -26.65308 -6.022498 -1.38774 6e-06 0.0 0.0 -0.223622 -0.174698 0.032535 -0.039791 -0.22995 0.114154 0.006465 -0.12528 -0.048552 -33.01553 -79.394051 41.843964 84.57888 -13.642676 -28.758938 14.920468 -1.212698 -0.069164 88.911057 67.589867 90.496368 17.636633 -26.322731 52.411213 -19.466656 -14.3956 29.410393 -2e-06 -8.774821 -3e-06 15.772642 -18.169548 6.068009 -0.609776 -1.795655 -3.889328 -4.807089 -11.046807 -2.937852 5e-06 -20.976011 -1e-06 -5.019967 -25.033552 -4.031885 6e-06 -0.0 1e-06 -10.634535 -5.68697 -3.565589 10.573275 -17.922947 -3.113899 3e-06 -13.821209 2e-06 -0.501776 -31.181498 -4.027016 -10.932211 -59.386814 7.006394 -13.982716 -7.150197 -2.875044 13.772731 -8.401491 -3.218241 0.347736 -34.21154 0.771656 -0.963028 -17.733366 2.621021 -0.0 -1e-06 0.0 -17.346422 -20.095215 -4.201785 21.757557 -1.638375 3.86643 1e-06 -6.338821 1e-06 -1.697588 -22.591738 -6.194008 -0.0 -6e-06 -2e-06 -178.309525 -58.145279 1.888895 75.628845 -1.91901 -52.643078 13.52286 -0.480096 -0.100498 40.871429 56.985783 43.392937 22.182123 -20.375898 49.933327 -16.701813 -16.743528 28.476532 -0.0 -12.690601 -3e-06 15.856958 -17.477146 2.857668 -0.10592 -1.513856 -4.275881 -5.039042 -5.612869 -2.953557 3e-06 -11.020526 -2e-06 -6.111299 -15.895332 -3.840472 -0.0 -1e-06 0.0 -10.283371 -5.680288 -4.34184 11.028293 -11.302402 -2.372632 -1.384269 -14.238576 -6.320121 -0.625439 -26.924179 -3.827601 -4.189621 -50.483315 -3.670104 -13.708526 -7.363476 -3.720942 18.141148 -14.052735 -3.242671 4e-06 -18.78727 -1e-06 -0.429711 -8.456042 2.555504 -1e-06 1e-06 0.0 -15.923536 -20.094481 -5.473588 30.419207 -7.190825 1.73593 2e-06 -8.162921 1e-06 -1.861904 -22.861464 -6.167941 0.0 -2e-06 -1e-06 102.815117 -5.461224 9.235956 129.636719 1.295063 0.673357 -51.195171 14.219754 2.298742 -10.182072 1.441557 2.112636 -0.999999 0.0 0.0 -27.374819 1.410259 7.350463 77.099487 -0.701467 -0.46127 -40.668575 18.15484 -1.199252 -9.040302 0.545434 1.440005 -1.000005 -1e-06 0.0 
